<svg xmlns="http://www.w3.org/2000/svg"  viewBox="0 0 50 50" width="50px" height="50px"><path d="M 11 4 C 7.134 4 4 7.134 4 11 L 4 39 C 4 42.866 7.134 46 11 46 L 39 46 C 42.866 46 46 42.866 46 39 L 46 11 C 46 7.134 42.866 4 39 4 L 11 4 z M 24.90625 9.9941406 C 28.09525 9.9941406 29.733031 10.328312 30.207031 10.445312 C 35.139031 11.557313 37.640625 14.670172 37.640625 19.701172 C 37.640625 23.487172 35.780078 26.068047 33.830078 27.623047 L 37.105469 35.539062 C 37.607469 36.750062 37.05175 38.149203 35.84375 38.658203 C 34.68575 39.146203 33.049406 39.660297 30.941406 39.904297 C 30.465406 39.959297 30.123828 39.984375 29.673828 39.984375 C 27.317828 39.984375 25.481031 38.859938 24.457031 37.335938 L 23.640625 38.150391 C 22.731625 39.059391 21.006578 39.6615 18.517578 39.9375 C 18.117578 39.9815 17.727328 40.005859 17.361328 40.005859 C 14.691328 40.005859 13.286172 38.823984 12.576172 37.833984 C 11.299172 36.050984 11.626609 34.026734 11.849609 33.177734 C 12.312609 30.299734 12.778766 27.423828 13.259766 24.548828 C 13.827766 21.155828 14.72775 17.683375 14.71875 14.234375 C 14.71475 12.669375 14.683656 10.783828 16.722656 10.548828 L 17.320312 10.480469 C 20.118313 10.158469 22.66925 9.9941406 24.90625 9.9941406 z M 25.169922 13.142578 C 23.346484 13.131006 20.885484 13.236844 17.677734 13.605469 C 17.677734 13.605469 17.775813 17.636594 17.382812 19.308594 C 16.989812 20.980594 14.925781 33.859375 14.925781 33.859375 C 14.925781 33.859375 13.754922 37.300547 18.169922 36.810547 C 20.824922 36.515547 21.414062 35.925781 21.414062 35.925781 C 21.414062 35.925781 21.473672 34.400375 21.513672 33.859375 C 21.620672 32.433375 22.005859 28.058594 22.005859 28.058594 L 24.265625 28.058594 L 26.527344 34.253906 C 26.527344 34.253906 27.081281 37.426547 30.363281 36.810547 C 33.509281 36.220547 33.902344 36.023437 33.902344 36.023438 C 33.902344 36.023438 32.871 34.256109 32.625 33.662109 C 31.863 31.822109 29.871094 26.289062 29.871094 26.289062 C 29.871094 26.289062 34.492187 24.814172 34.492188 19.701172 C 34.490187 15.371172 32.131563 14.097813 29.476562 13.507812 C 29.476562 13.507812 28.208984 13.161865 25.169922 13.142578 z M 24.533203 16.599609 C 25.726922 16.562812 28.123766 16.801344 28.197266 19.308594 C 28.336266 24.026594 24.953125 24.519531 24.953125 24.519531 L 22.59375 24.519531 L 23.871094 16.654297 C 23.871094 16.654297 24.135297 16.611875 24.533203 16.599609 z"/></svg>